<svg xmlns="http://www.w3.org/2000/svg" viewBox="0 0 1143 82"><defs><style>.\32 99fac6b-efd9-4106-ada5-1374ce073484{fill:#3c4c6b;}</style></defs><title>bufferline</title><g id="9ff81b8e-62dd-41ab-8d00-853f445dea1b" data-name="圖層 1"><path class="299fac6b-efd9-4106-ada5-1374ce073484" d="M1110.24,33.85c1.59,0,1-.58,1.26-.69C1108.83,33.3,1110.31,34,1110.24,33.85Z"/><polygon class="299fac6b-efd9-4106-ada5-1374ce073484" points="1083.92 35.27 1084.38 35.02 1080.5 35.65 1083.92 35.27"/><path class="299fac6b-efd9-4106-ada5-1374ce073484" d="M1059.3,35.26c2.33,1.07,8.92-.17,13.31.21l.72.25,2-.87C1070,35,1063.06,35.56,1059.3,35.26Z"/><path class="299fac6b-efd9-4106-ada5-1374ce073484" d="M1046.18,33c.81.41-2.84.36,3.06.13l-.56-.11C1048.15,33,1047.42,33,1046.18,33Z"/><path class="299fac6b-efd9-4106-ada5-1374ce073484" d="M1048.68,33c2.6,0-1.69-.35,0,0Z"/><path class="299fac6b-efd9-4106-ada5-1374ce073484" d="M1036.71,33.21l3.42-.37c-.71-.25-3.75-.3-2.62-.48C1034,32.56,1034.72,32.81,1036.71,33.21Z"/><path class="299fac6b-efd9-4106-ada5-1374ce073484" d="M1033.48,34l1.77-.16A3,3,0,0,0,1033.48,34Z"/><path class="299fac6b-efd9-4106-ada5-1374ce073484" d="M1039,33.5l-3.75.33c.49.18.54.52,1.72-.11C1036.66,34,1037.4,33.73,1039,33.5Z"/><path class="299fac6b-efd9-4106-ada5-1374ce073484" d="M1041.12,33.67c1.92.23,4.39.38,1,.75C1048.62,34.27,1047.66,33.52,1041.12,33.67Z"/><path class="299fac6b-efd9-4106-ada5-1374ce073484" d="M1058.05,36.37l2.56.32,2.21-.36C1061.71,36.5,1057.89,36,1058.05,36.37Z"/><path class="299fac6b-efd9-4106-ada5-1374ce073484" d="M1015.44,32.66c-.21.22,1.15.6,1.41.9l2.52-.27C1018.07,33.14,1015.62,33,1015.44,32.66Z"/><path class="299fac6b-efd9-4106-ada5-1374ce073484" d="M1016.85,33.56l-3.78.39C1016.44,34,1017.06,33.81,1016.85,33.56Z"/><polygon class="299fac6b-efd9-4106-ada5-1374ce073484" points="1032.87 35.18 1039.07 34.36 1031.67 35.19 1032.87 35.18"/><polygon class="299fac6b-efd9-4106-ada5-1374ce073484" points="1001.03 32.63 1003.17 32.1 999.36 32.9 1001.03 32.63"/><path class="299fac6b-efd9-4106-ada5-1374ce073484" d="M991.47,32.72c1.59-.44-2.17-.74-.49-1a49,49,0,0,0-6.81.79A33.69,33.69,0,0,1,991.47,32.72Z"/><path class="299fac6b-efd9-4106-ada5-1374ce073484" d="M980.81,33c1.06-.1,2.16-.29,3.36-.49A27.48,27.48,0,0,0,980.81,33Z"/><path class="299fac6b-efd9-4106-ada5-1374ce073484" d="M1006.65,33.83a7.06,7.06,0,0,0-3-.65l1.48.64Z"/><path class="299fac6b-efd9-4106-ada5-1374ce073484" d="M1005.21,33.84l-.05,0-3.21,0Z"/><path class="299fac6b-efd9-4106-ada5-1374ce073484" d="M1007,33.84h-.37A.33.33,0,0,0,1007,33.84Z"/><path class="299fac6b-efd9-4106-ada5-1374ce073484" d="M1023,34.6c-2.22.36-6.84.74-2.37,1.29C1022.2,35.45,1019.64,35.14,1023,34.6Z"/><path class="299fac6b-efd9-4106-ada5-1374ce073484" d="M1008.86,34.64l4,.14c-.08-.16-.8-.41.3-.59Z"/><polygon class="299fac6b-efd9-4106-ada5-1374ce073484" points="1006.9 34.84 1008.86 34.64 1007.38 34.58 1006.9 34.84"/><path class="299fac6b-efd9-4106-ada5-1374ce073484" d="M987.68,33.59a42.07,42.07,0,0,1-5.77.35c2.3.13,4.67.2,6.92.19C989.15,33.93,990.14,33.57,987.68,33.59Z"/><path class="299fac6b-efd9-4106-ada5-1374ce073484" d="M996.2,33.77l-.39,0C996.05,33.86,996.24,33.88,996.2,33.77Z"/><path class="299fac6b-efd9-4106-ada5-1374ce073484" d="M960.85,33.94l.34.11a1,1,0,0,0,.08-.11Z"/><path class="299fac6b-efd9-4106-ada5-1374ce073484" d="M989.21,34.25A12.28,12.28,0,0,0,993,34c-1.29.07-2.65.11-4.12.11C988.69,34.23,988.66,34.29,989.21,34.25Z"/><path class="299fac6b-efd9-4106-ada5-1374ce073484" d="M974.94,33.29c.9.14,1.91.25,3,.36A9.81,9.81,0,0,0,974.94,33.29Z"/><path class="299fac6b-efd9-4106-ada5-1374ce073484" d="M995.23,33.63l.26,0C994.93,33.47,995,33.53,995.23,33.63Z"/><path class="299fac6b-efd9-4106-ada5-1374ce073484" d="M995.23,33.63A22.34,22.34,0,0,0,993,34c1-.05,2-.12,2.86-.21A5,5,0,0,1,995.23,33.63Z"/><path class="299fac6b-efd9-4106-ada5-1374ce073484" d="M954.47,38.05c.31-.59,4.84-1.14,8.75-.5,3.85-.45,1.33-2.4-2-3.5-.12.26-.12.5-4.08.85,1.39.33,8.79.76,5.45,1.3-5.25.31-4.3-.21-6.85-.52,2.17.73-6.68,1.07-5.53,2.16l4.6-.38C954.86,37.63,953.2,37.9,954.47,38.05Z"/><path class="299fac6b-efd9-4106-ada5-1374ce073484" d="M968.74,34.11l1.63-.07a38.11,38.11,0,0,1-5.64-.81c-2.71.29-3.27.51-3.46.71l8,.09Z"/><path class="299fac6b-efd9-4106-ada5-1374ce073484" d="M977.69,34c-1.28.64-5.19.92-2.79,1.62,4.78,0,3.35-.54,6.21-.82-7.72.16,2.21-.36-3.36-.73,1.51-.11,2.88-.14,4.16-.17-1.38-.08-2.72-.17-4-.29l.18,0h0c.33.08.44.13.07.09H978a.78.78,0,0,1-.34.24c-2.24-.13-.36-.16.34-.24,0,0,.09-.06.1-.1h0l-7.73.35C972,34.13,974.05,34.11,977.69,34Z"/><path class="299fac6b-efd9-4106-ada5-1374ce073484" d="M1016.49,37.28c-.24-.06-.23-.1-.25-.15C1015.74,37.21,1015.55,37.26,1016.49,37.28Z"/><path class="299fac6b-efd9-4106-ada5-1374ce073484" d="M1013.3,36.89a8.85,8.85,0,0,1,2.86-.28c1.59.19,0,.31.08.52,1.1-.17,3.85-.46.4-.78l-.55.09c-3.11-.22-7.11-1-6.57-1.12A11.69,11.69,0,0,0,1013.3,36.89Z"/><path class="299fac6b-efd9-4106-ada5-1374ce073484" d="M995.27,35.63l-6.43.32,3.27.56-.16-.34C995.61,36.3,994.82,35.89,995.27,35.63Z"/><polygon class="299fac6b-efd9-4106-ada5-1374ce073484" points="960.12 33.62 960.97 32.93 957.25 33.9 960.12 33.62"/><polygon class="299fac6b-efd9-4106-ada5-1374ce073484" points="951.75 33.7 952.06 33.1 949.85 33.46 951.75 33.7"/><path class="299fac6b-efd9-4106-ada5-1374ce073484" d="M479.61,41.06l-1.9.17C478.61,41.18,479.18,41.12,479.61,41.06Z"/><path class="299fac6b-efd9-4106-ada5-1374ce073484" d="M493.3,41.1l.34-.29C493,41,492.74,41.09,493.3,41.1Z"/><path class="299fac6b-efd9-4106-ada5-1374ce073484" d="M746.26,33.76c-2.75-.55-5.83-1.41-5.5-.74l.85.65A26.17,26.17,0,0,1,746.26,33.76Z"/><path class="299fac6b-efd9-4106-ada5-1374ce073484" d="M605.53,37.65l.81.2,1.86-.62Z"/><path class="299fac6b-efd9-4106-ada5-1374ce073484" d="M603.59,40.34,600,39.92C600.77,40.07,601.94,40.21,603.59,40.34Z"/><path class="299fac6b-efd9-4106-ada5-1374ce073484" d="M404.8,41.75l-2.2.66C406.05,42.41,404.53,42.08,404.8,41.75Z"/><path class="299fac6b-efd9-4106-ada5-1374ce073484" d="M866.06,33.94c-2.38-.26-4.27-.36-5.93-.4C863,33.92,865.3,34.48,866.06,33.94Z"/><path class="299fac6b-efd9-4106-ada5-1374ce073484" d="M485,34.16c-1.16.11-1.66.25-1.62.39C484.57,34.44,485.24,34.32,485,34.16Z"/><path class="299fac6b-efd9-4106-ada5-1374ce073484" d="M853.26,33.55l1.25.15c1.74-.11,3.49-.2,5.62-.16A21.69,21.69,0,0,0,853.26,33.55Z"/><path class="299fac6b-efd9-4106-ada5-1374ce073484" d="M133.51,41.21l-.61-.07C132.84,41.22,133.11,41.23,133.51,41.21Z"/><path class="299fac6b-efd9-4106-ada5-1374ce073484" d="M54.48,34.65c.78,0,2.05,0,3.24,0A26.63,26.63,0,0,0,54.48,34.65Z"/><path class="299fac6b-efd9-4106-ada5-1374ce073484" d="M918.09,33.41c1.77,0,.28-.07,0,0Z"/><path class="299fac6b-efd9-4106-ada5-1374ce073484" d="M926.72,36c-.38.07-.67.16-.71.31A1.3,1.3,0,0,1,926.72,36Z"/><path class="299fac6b-efd9-4106-ada5-1374ce073484" d="M835.58,37.6h-.15C836,37.72,835.87,37.7,835.58,37.6Z"/><path class="299fac6b-efd9-4106-ada5-1374ce073484" d="M920.76,33.71c-.67-.08-1.44-.15-2.27-.19C918.85,33.57,919.54,33.63,920.76,33.71Z"/><path class="299fac6b-efd9-4106-ada5-1374ce073484" d="M920.4,33.4l1.55.06C922.17,33.36,922,33.29,920.4,33.4Z"/><path class="299fac6b-efd9-4106-ada5-1374ce073484" d="M915.61,33.45c1,0,2,0,2.88.07-.35-.05-.5-.08-.4-.11Z"/><path class="299fac6b-efd9-4106-ada5-1374ce073484" d="M278.87,39.47l-.38-.06C276.7,39.68,277.49,39.64,278.87,39.47Z"/><path class="299fac6b-efd9-4106-ada5-1374ce073484" d="M700.08,40.52a1.2,1.2,0,0,0,.2,0l-.26,0Z"/><path class="299fac6b-efd9-4106-ada5-1374ce073484" d="M693.71,41a14.58,14.58,0,0,1,6.31-.54l-2.11-1.88Z"/><path class="299fac6b-efd9-4106-ada5-1374ce073484" d="M446.81,41.25l4.48.59c-5.41,1-9.31.63-5.11,1.45.63-2,17.4-.21,18-2.25l2.95.43c-.85,0-1,.1-1.82.08,5.74,1,4.26-1.47,11.66-1.18,2.57.15,4.37.45,2.62.69l5.74-.5c1.67,0,1.26.39-.4.35l8.75-.16-.06.06c1.25-.32,4.08-.81,5.46-1,2.23.29-1.12.21-.55.47l4.85-.5c2,.53-2,1-5.39,1,4.53,2,4-.51,13.8.67l-4.58.26c2.95,1.16,6.52.74,11.7,1.46-1.23-.38-10.36-1.82-5.1-2.32a24.71,24.71,0,0,0,6.27-.19c0,.73,2.8.55,6.27.51l-.24,1c3.75-.28,3.46-.77,5.66-1.2,4.18.1,5.05.84,6,1.46,6.7.16-4.62-1.19,3.3-1.37,5.57.37,9.48,0,16.14-.6,3.89.33-.68.59.72.86l3.45-.76c.84,0,.57.25.43.37,2.91-.3.24-1,4.82-1.22,1.23-1.06,9.39,1.55,15.05.35,1.4.27-.67.58-.25,1a129.77,129.77,0,0,0,13-1.64l5.44.63c-4-.72,1.11-1.57,5.57-2.27-1.41-.35-2.62-.65-3.43-.8l7.13-.51c.86.15.14.48-1,.89.49-.08.95-.16,1.31-.24,2.55.36,1.23.91-.6,1.45l-2.57-.59c-1.76.58-3.41,1.23-3,1.79a15.23,15.23,0,0,1,2.34-.26c-.46.16-.76.3-.55.39a7.59,7.59,0,0,0,2.16-.35l1.62,1.07.39-.43,9.33.67c6.68-1.07,12.48-2.66,23.08-3.1-2.63.78-.57,1.28-.71,2.21-2.89-1-8.21.42-13.7.22,2.87.1,2.24.54,1.51.7l9.79-.9c-.22.76,2.08.57,4.64.89-1.93-1.51,7.3-1,11.28-1.46.25.5-.7,1-5.57.89,5.37,1.13,6.93-1.76,12.2-.8a5.7,5.7,0,0,0-2.3.19c2.78-.45,9.55-.09,8,.35h-1.19c7.89.18,24,0,25.17-1.27a4.94,4.94,0,0,1-1.51,1.8l14.06-4.29c-1.24,1.09,3.52,3.7-3,4.32a39.91,39.91,0,0,0,8.16-.05c-1.28-.15-3.19-1.58-1.45-1.68,4.81,1.22,3.34.65,9.26,1.69-1.92-.23.21-2,3.24-1.9-.47.26.25,1.7-.86,1.88l7.55-1.69c-1.88.3-.33,1.43,1.36,1.91-.79-.33,6.52,0,8.53-.14l-3.2-.39c8.53.25,8.42-2.37,16.87-2.28-1,.34-2.52,2.14,1.78,2.35,2-.86,8.72-4.15,16.2-4.82l1.43.5,5.74-.57a178.63,178.63,0,0,1-19.08,5.1c3.19.39.89.59,5.67.54,1.68.46-2.6.7-4,.73l11.12.3c-.5-1,8.5-1,8.08-1.85l-12.08,1c-.49-1,7-2.86,14.86-2.68,2,.4-1.5,1.79-1.33,2.13a39.2,39.2,0,0,1,8.2-.42l-3.35.54c4.39.38,7.16-1.34,12.43-.37,1.82.06,5.43,1.3,5.75.7-3-1.15-3.55-4.71-1.57-5.58.63.08,9.55,1.1,11.62,1.67,3,.91-4.49,2.15-1.94,2.93.11-.28,1.76-.62,2.45-.73,1.91.24-.79.86,3.36.73.69-1,8.44.09,2-.86,4.06-.29,4.32.21,9.09.16-1.52-.66,4.28-2.24,8.35-2.54-.24.26.67.6,1.11.76,8.32.09,12.79.55,20.55.56.72.25,4.46.55,2.87,1a21.29,21.29,0,0,1,4.53-.55c4.64.88-5.33.13-1.8,1.2.3-.6,6.19-.82,9.6-1.19-1.05-.92-7.88-.18-11.29.19,0-1.26,5.92-2.59,14-3.18,6.44-.31,2.79.82,3.91.64,12.11.22,10.32-2.21,20.37-1.29,4,.8.18,1.6,1.07,2.18-5.26.31-8.07-.51-11.63-.48l4.39.38a33.11,33.11,0,0,1-7.09.24c3.34.73,20.46.14,29.8.81,1.66-.27,4.53-.55,3.17-.87l-3,.11c-2.71-.65,5.57-.9,1.83-1.21a71.5,71.5,0,0,1,14-.8l1.05.92c-.12-.27-3.65-.55-5.22-.27,2.33-.41,8.56,1.24,11.11,0L934,35.38c4-.46,8.9-1.44,13.85-1.15-2.26-.9-1.14.11-4.66-1,3.05,1.33-12.66-.05-7.76,1.34-3.61-1.23-6.24-.52-11-1.58.15.31,1.67.58-2.48.43a5.51,5.51,0,0,1-.91.27l-.28,0,.23,0c-.18,0-.2.06.08,0a8.37,8.37,0,0,1,2.12.46c-2.06.69-8.67.67-10.9,1-2.47-.14,1-.34-.32-.67l-3.33.54c-.33-.67-6.55-1.12-.75-1.51l-5.22,0a50.71,50.71,0,0,0-9.92-.25c-2.46-.14-6.22.75-4.08.22l-8.19.42-.08-.17c-8.08-.08-16.64,1.12-25.89-.1a84.52,84.52,0,0,1-10.09.19l-.88-.59c-3.5.21-10.5-.58-12,0-3.77-1.57-17-.35-23.11-.62l-.23.76c-4.23,0-8.29.17-13.54.48l.32.67c-4.53.55-11.64-.48-18.8-.41a9.88,9.88,0,0,1,3.59,0c-8.56-1.52-18.06,1.1-25.82,0a17.81,17.81,0,0,1-4.69,0l.48,0H749c-.85-.11-1.73-.25-2.69-.36a20.12,20.12,0,0,0,2.26.36c-1.49,0-3.75.1-6,.27l-.94-.72-.51,0c-2.18-.27-1.75.34-.59.88a29.55,29.55,0,0,0-2.93.44c-1.77-1.17-5.82.39-8.23-.85-1.5.61-11.15.46-12.33,1.73-.08-.16-.73-.24.47-.26a34.07,34.07,0,0,0-7.16.07l-1.05-.91L703.88,36c-3.28-.56-4.64-.88-1.38-1.59-7.86,1.09-6.38.41-13.06,1.49l.32-.6c-2.39,0-6.21.82-7.65.33-5.35-1.13-26.45-.16-40.17-1.21,2.66,1.75-6.38-.78-6.93.58-.8-.42-2.71-.65-.48-1-7,.41-10.53-.66-15.36.49-.8-.42,1.5-.61.78-.86a8.68,8.68,0,0,1-3,.12c-.71-.25,1-.35,2.13-.53-7.15.07-7.87,1.34-8.39,2.54-3.63-.57-5.44-.49-8.06.3-1.26-.39-3.36-.8,1.08-.94-2.5-.06-15.27-.58-15.53.38a16.41,16.41,0,0,0-4.15,0c-5.61-.06-6.11-.14-11.62,0l1.53.16c-2.18,1.15-4.58.25-9,.39l.12-.11c-10.18-.84-4.39.39-14.44-.56l.55.72c-.94,1.55-8.91-.91-14.74-.32l2.11.41c-3.19.53-8.91-2.1-12.11-2.3-.69-.13,1.11-.21,2.08-.31-8.37-.92-1.09.94-7.33,1.16-1.15-.51,1.49-1.29-2.71-1.39-2.1-.41-12.19,1.65-17.92.68,1.27.39,2.52.78-.38,1.07-4.44.14-12-1.48-16-.24-.57-.11-.78-.21-.8-.31-3.4.32-11,.53-13.09,1.2-3.13-2.48-21.11,1.21-21-1.08l-10.45.12.27-.23c-6.67-.15-9,.39-11.38.94-1.55-.15-.42-.37-.29-.49-9.76-.46-10.73-.36-18.91.78l-.85-.74c-2.21.43-14.1-1.17-23.67-.3.09-.09.29-.23,1-.33-10.77.87-25.77-2.07-29.72.64l-7.1.67c9.19.21-1.37,1.17,2.41,1.62-3.62.16-9.35-.81-4.91-1l.7.13C348,35.12,335,36,335.24,35.07c-18.09.07-35.72-.71-52.66-.77l1.95,1.1-5.91-.07c-1.55-.25-2.08-.85,2.13-.81-2.21-.62-7.07.52-7.19.76-8.25-.44,3.23-1.28.7-1.31l-3.44.09.77.12c-2.78.45-3,.93-8.1.87-3.2-.22-1.64-.67-2.91-.71,0-.08-.41-.12-1.93,0l-7.45-.09,3,.87c-3.3.42-7,0-3.57.93-5-1.51-27.77-.54-30.86-1a98.34,98.34,0,0,1-14.84.54c1.4.18,2.25,1.16-2.63,1,1.78-2-8.93-.87-12.87-2.32,3.53,1-13.85.24-8.33,1.6-4.07-.17-.25-.75-3.33-1.23-9.68.78-21.34-.5-33.3-.24-.19.26,1.81.67-.75,1.06l-6.32-1.32c-2.36.13-2.18,1.52-6.49.61.61.22,1.52.55-.07.64-23.44-1.29-47.9,1-71.71-1.36,3.23.51,1.08.56-1.39.58,1.61.12,0,.65.28,1l-10-1c-1.82,1-10.69.07-11.73,1l3.16-.17c-4.2,1.12,5.87,2.49,5.26,3.92,4.69-1.27,12.39,1.89,20.1.07,1.7.29-1.45.46-.54.79,1.95-.61,4.31-.74,8.69-.47l-.5.16c12.29-.15,17.56.45,31.37.86l-1-.71a33.55,33.55,0,0,1,5,.49c3.41-1.07-8.33-.06-5.23-1.24,3.94,1.44,20.93,0,23.58,1.66,4.57,0-1.33-.82,3.23-.81l1.21.44,1.15-.57c3,.09,4.5.65,4.62,1-.73,0-2.07.1-2.85.13,3.88.53,11-.17,12.28,0l-4.39-.28c12.46-.41,27.67.17,39.7-.74l-.91-.33c9.19-.62,7.36.37,17.45.08l-.37.08a44.91,44.91,0,0,1,7.48-.46c-2.55.39,4.79.76,1.45,1.19,10-.66,4.93-.52,11.51-1.76l1.51.55a25.37,25.37,0,0,1,7.47-.91c-4.13.48,3.22.85-1.41,1.48,10.57,1.21,15.7-1.23,20.55.55,4.86-1.54-9.15-.86-6.43-1.19-2.28-.5,4-1.15,7.33-1s5.74,2,14.24,1.94c-.85,0-.91.11-1.75.1,3.18.39,6.23-.53,10.13.11,2.19-.93,5.07,0,5.7-1.14l-7.8.28c4.42-.31,8.56-1.7,15.84-1a26.24,26.24,0,0,1-4.22.73c2.13.35,4.1-.23,6.31.13-.63,1.19-9.47.26-14.21,1.16,2.29.51,9-.86,6.58.43,3.42-1.64,8.37.21,14.12-1l-.38.71a32.78,32.78,0,0,1,4.48-.43l-3,.92c4.66-.79,9,.69,13.45.26-9.35,0-2.1-.86-6.05-1.38,11.53-.95,6.63,1.87,19.55,1.53-1.75.1-6.57-.43-3.83-.76a52.56,52.56,0,0,1,7.22.79c8.56-.15-1.32-.73,2.33-1.17,2.91.87,4.2-.35,8-.63l0,.72c9.75.47,2.58-1.5,11.36-.94l-3.71,1,4.58-.26-.94.82a52,52,0,0,1,11.41-.22c-1.14-.51.63-1.31,5-1.33,2.94.43-1.65.69,4.47.58a8.7,8.7,0,0,1-5.56.36c-.28.23-1.37.45-1.65.68,3.18.5,8,.12,10.19.11a20.33,20.33,0,0,1-2.39-.17l8.87-1c1.4.27.29.49-.81.7,1.8-.08,3-.41,5.69-.47-.68.59-.52,1.19-4.26,1.47l8.46-.65c.56.25,4.34.7,3.24.92,4.69.34,11.5-1.14,17.72-.69a10.41,10.41,0,0,1,2.29-.31c5.84.14,11,.86,17.94,0l3.93,1.06c5.43-.24-5.32-1.33,3.72-1.73,6.39-.34,2.38.9,4.62,1.19,3.18-.53,8.71-1.61,14.59-.75C450.15,41.33,448.63,41.17,446.81,41.25Zm66.89-.47c-1.3.15-3.88.62-4.83.2C510.35,40.15,511.49,40.54,513.7,40.78ZM615.38,39a11.66,11.66,0,0,1-4.13-.15A23.83,23.83,0,0,1,615.38,39Zm283.26-5-.14,0C895.61,33.76,896.63,33.87,898.64,34Zm6,.32c.6-.1.56-.21.31-.31a11.87,11.87,0,0,1-3.31.15A6.43,6.43,0,0,0,904.64,34.32Zm-644.72.28,1.17.19C258.45,35,259.19,34.81,259.92,34.6Z"/><path class="299fac6b-efd9-4106-ada5-1374ce073484" d="M603.85,40a.87.87,0,0,1-.55-.39C602.79,39.76,602.78,39.9,603.85,40Z"/><path class="299fac6b-efd9-4106-ada5-1374ce073484" d="M405.21,41.63H405a.54.54,0,0,0-.21.13Z"/><path class="299fac6b-efd9-4106-ada5-1374ce073484" d="M811.64,40.45a11.61,11.61,0,0,1-2.38-.37C809.19,40.26,809.75,40.41,811.64,40.45Z"/><path class="299fac6b-efd9-4106-ada5-1374ce073484" d="M936.45,33.09l-3.84.18a19,19,0,0,1,3.46.24C936,33.34,935.25,33.1,936.45,33.09Z"/><path class="299fac6b-efd9-4106-ada5-1374ce073484" d="M969.83,37.56c.56-.08,1.19,0,1.75-.09l-.15-.34C969,37.15,967.36,37.42,969.83,37.56Z"/><path class="299fac6b-efd9-4106-ada5-1374ce073484" d="M940,35.49c.31.61,2.72.4,5.41.29H945C945.74,34.93,942.87,35.21,940,35.49Z"/><path class="299fac6b-efd9-4106-ada5-1374ce073484" d="M946.05,35.76c.83,0,1.68,0,2.49,0C948.85,35.4,947.53,35.67,946.05,35.76Z"/><path class="299fac6b-efd9-4106-ada5-1374ce073484" d="M912.25,33.91c1.28.16.81-.78,1.53-.53C915.2,32.61,905.26,34.32,912.25,33.91Z"/><polygon class="299fac6b-efd9-4106-ada5-1374ce073484" points="942.2 37.5 941.23 36.74 939.72 37.35 942.2 37.5"/><path class="299fac6b-efd9-4106-ada5-1374ce073484" d="M920.92,36.94l4.31.21c-.07-.12.48-.2,1.15-.25C923.73,36.87,920.82,36.72,920.92,36.94Z"/><path class="299fac6b-efd9-4106-ada5-1374ce073484" d="M926.38,36.9a24.31,24.31,0,0,0,3.47-.13C929.1,36.78,927.49,36.8,926.38,36.9Z"/><polygon class="299fac6b-efd9-4106-ada5-1374ce073484" points="936.31 37.72 935.04 37.56 932 37.51 936.31 37.72"/><path class="299fac6b-efd9-4106-ada5-1374ce073484" d="M874.65,36.8,870,37c-.48.25.8.41,2.55.31C873.63,37.15,875.37,37.05,874.65,36.8Z"/><path class="299fac6b-efd9-4106-ada5-1374ce073484" d="M888.86,38.86a6.71,6.71,0,0,1-2.07-.57l-.14.93Z"/><path class="299fac6b-efd9-4106-ada5-1374ce073484" d="M875.16,39.08c-.47.25-6.82.74-.86.68C874.77,39.5,879.48,39.29,875.16,39.08Z"/><polygon class="299fac6b-efd9-4106-ada5-1374ce073484" points="804.38 37.9 805.57 37.88 805.4 36.36 804.38 37.9"/><path class="299fac6b-efd9-4106-ada5-1374ce073484" d="M742,41.55c5.57.37,1.32-.94,6.35-.48,1.31-.36-4.11-.38-2.77-.69C742.21,40.76,740.45,40.55,742,41.55Z"/><path class="299fac6b-efd9-4106-ada5-1374ce073484" d="M745.57,40.38c.54-.06,1.11-.13,1.72-.23A14.84,14.84,0,0,0,745.57,40.38Z"/><polygon class="299fac6b-efd9-4106-ada5-1374ce073484" points="41.37 33.83 37.78 33.51 40.1 34.02 41.37 33.83"/><path class="299fac6b-efd9-4106-ada5-1374ce073484" d="M34.49,35l-.84-1-2.15.88A10.84,10.84,0,0,1,34.49,35Z"/><path class="299fac6b-efd9-4106-ada5-1374ce073484" d="M523.64,42.74l.28-.23a9.24,9.24,0,0,0-3.07-.31Z"/><polygon class="299fac6b-efd9-4106-ada5-1374ce073484" points="475.1 42.02 475.93 42.03 474.37 41.16 475.1 42.02"/><path class="299fac6b-efd9-4106-ada5-1374ce073484" d="M434.35,43.14c1.66,0,3.62-.16,5.29-.12C436,43.18,433.9,42,434.35,43.14Z"/></g></svg>