<svg xmlns="http://www.w3.org/2000/svg" viewBox="0 0 1061.4 105.89"><defs><style>.\33 7e74925-30bf-4219-9d83-5bd7d9dd8674{fill:#1b1b1b;}</style></defs><title>quote</title><g id="c331249d-43b4-48bf-82a2-5a38a1c7cbc3" data-name="圖層 1"><path class="37e74925-30bf-4219-9d83-5bd7d9dd8674" d="M1003.05,51c0,.5-.07,1.29-.11,1.92C1002.91,51.08,1002.92,50.19,1003.05,51Z"/><path class="37e74925-30bf-4219-9d83-5bd7d9dd8674" d="M1002.54,76.58c0-6.61,0-17.09.4-23.68C1003.07,58.77,1003.74,74.58,1002.54,76.58Z"/><path class="37e74925-30bf-4219-9d83-5bd7d9dd8674" d="M1005,49.75l-.36,8.28C1004.31,53.19,1004.88,54.16,1005,49.75Z"/><polygon class="37e74925-30bf-4219-9d83-5bd7d9dd8674" points="1003.87 52.8 1003.43 52.37 1003.65 50.17 1003.86 47.72 1003.87 52.8"/><path class="37e74925-30bf-4219-9d83-5bd7d9dd8674" d="M591.84,46.9c.86.19,1.38.4,1,.67Z"/><path class="37e74925-30bf-4219-9d83-5bd7d9dd8674" d="M572.79,44.9c-1.72-.07-2.91-.1-3.93-.12C570,44.75,571,44.79,572.79,44.9Z"/><path class="37e74925-30bf-4219-9d83-5bd7d9dd8674" d="M609.15,46.72l-3.38.06C606.85,46.72,608,46.69,609.15,46.72Z"/><path class="37e74925-30bf-4219-9d83-5bd7d9dd8674" d="M820.62,45l8.4.81C822.89,46.18,822.36,45.46,820.62,45Z"/><path class="37e74925-30bf-4219-9d83-5bd7d9dd8674" d="M485.19,38.47l-.81.35C483.48,38.66,483,38.51,485.19,38.47Z"/><path class="37e74925-30bf-4219-9d83-5bd7d9dd8674" d="M568.21,39c.09.2-.09.35-.45.46l-1-.08Z"/><path class="37e74925-30bf-4219-9d83-5bd7d9dd8674" d="M622.57,46l.19,0,2.75.22A8.66,8.66,0,0,1,622.57,46Z"/><path class="37e74925-30bf-4219-9d83-5bd7d9dd8674" d="M458.45,38a23,23,0,0,1-3.33-.77C457.69,37.37,458.9,37.71,458.45,38Z"/><path class="37e74925-30bf-4219-9d83-5bd7d9dd8674" d="M568.38,44.78h0Z"/><path class="37e74925-30bf-4219-9d83-5bd7d9dd8674" d="M595.75,39.38l-4.37-.18A22.73,22.73,0,0,1,595.75,39.38Z"/><path class="37e74925-30bf-4219-9d83-5bd7d9dd8674" d="M820.62,45,818,44.76A11.61,11.61,0,0,1,820.62,45Z"/><path class="37e74925-30bf-4219-9d83-5bd7d9dd8674" d="M988.47,44.14c-2.66,0-3.29-.25-3.8-.51A29.08,29.08,0,0,1,988.47,44.14Z"/><path class="37e74925-30bf-4219-9d83-5bd7d9dd8674" d="M54.8,69.47v1.06A8.85,8.85,0,0,1,54.8,69.47Z"/><path class="37e74925-30bf-4219-9d83-5bd7d9dd8674" d="M128.33,46.63a9.86,9.86,0,0,1,1.35.29C128.81,47,128.32,46.84,128.33,46.63Z"/><path class="37e74925-30bf-4219-9d83-5bd7d9dd8674" d="M222.21,38.05c-6.66.51-13.53-.54-19.33-.59l2,.44L199,37.53l.07.63c-9.66-.3-21.65.36-25.18-.65l1.13,1-10.24-.8,5.86.68c-11.5.21-29-.57-31.44-.56l1,.37a29.92,29.92,0,0,1-5.33-.18l1.51.57c-17.34-.16-22.08,1.11-41.43.52-5.28.13,2.92.18,3,.5a57,57,0,0,1-11.12-.23c1.53.88,9.69.61,3.5,1.31-4.41-.43,3,.81-4.75.64l-3-1.12c-4.31.19-.86.88-7.67.77-7.78-.49,9.51-1.28-3-1.45a62.11,62.11,0,0,0-8.42,1l-2.43.35L59.79,41l-.66.08-.89.08c-2.42.2-4.85.36-7.52.42.05,2.39,0,4.83-.06,7.54,0,.91.07,1.38.11,1.86s.09.83.13,1.13a2.37,2.37,0,0,0,.27,1c.19.2.38-.36.55-.8.33-.88.54-1.26.4,6l.74-9.24c.32,2.3.88.86.64,7.13a54.56,54.56,0,0,0-1,9.27c.85-13.6,1.28,11.92,2.39-.73l0,4.72c0-.59.15-.74.24-.43l.07,6.27c.25-3.87.35-13.06,1.18-8.79l.21,9.08c.62-2.42.88.91,1.38.38l.61-13.36.3-6.68.15-3.34L59,50.93l0-.83c0-.21,0-.09,0-.12h0c-.09,0-.18-.21-.26.47l-.24,1.48c-.15.91-.31,1.51-.5.8,0-.72-.05-1.34-.06-1.91V50a1.19,1.19,0,0,1,0-.15.56.56,0,0,1,.12-.3c.12-.13.26-.11.25-.29.09,0,.14,0,.26-.15a4.9,4.9,0,0,0-.86-.5c.3.19.47.25.3.32v0c.13.29.11.35,0,.37a.93.93,0,0,1-.41-.1,1.84,1.84,0,0,1-.31-1,4.29,4.29,0,0,1,1.21.14,2,2,0,0,1,.48.19c.49.07,1.05.14,1.38.22,8.67-.08,1.78-1.14,3.7-1.33,4.48,1.06,14.48,0,19.86.46l-3.45-.68c6.6-.84,12.51-.15,16.38.09l-1.5-.56c9.19.1,13.75-1.79,20.75.21l-1-.38c3.77-.17,9.49-.59,13.1,0,.09-.23.73-.53,2.26-.6,2,.78,6,.19,11.52,0-3.69-.2-2.51-1.2-6.4-1.44,8.57-1,7.86,1.12,15.06,1.1,4.32-.51-3.87-.56-4.9-.93,11.12.54,22.85-2.31,29.87-.31l-4.78.64c4.42.43,6.82.42,6.28.24a5.15,5.15,0,0,1-2.4-.31c13.35-1,20.89,1.46,34.37,1.06-1-.37-2.93-.5-3-.81,6.2-.39,6,1.94,16.07,1.16l-2-.43c3.34-.26,5.81.36,5.36.49.27-1.7,21.22.08,28.21-2.13,4.91.93,19,1.66,23.28,1.14,6.16-1-5.46-1.12-3.17-2.07,4.83,0,7.36.93,14.55.6.12,1-14.21,1.92-.68,2.46l1.9-.51a45.42,45.42,0,0,1-5.29.14c-3.92-.56,2.34-.64,3.24-.89l14.53.29c1.06,1-7.63.77-8.52,1,11.49-.21,25.33-1.68,36-1l-1-.38c13.63.85,7.95-1.84,18.8-.23,5.73-.26-2.07-1.06,6.58-1.14,2.45,0,1,.37.58.5,10.63.36,4.68-.95,14.49,0l-2.12-1.06c11.69.73,23.94,2.59,34,2.13-.6-.82-6.85-.74-9.34-1.36,13.69,1.48,32.82.18,45.47,1-3.78.7,6,1.63-2.11,2.21-2.1-1.06-5.9-.37-10.23-.48,7,2.31,29.31-1.13,31.45.88l1.85-.82c1.95.12,6.87.74,3.47,1l14-.53c-4.9-.62-15.23-2.05-18.47-1.16-4-.88,5.71-.58,2.2-1.58,9.33,1.36,5.73-.58,15.4-.28-4.37,1.18,9.62,1.61,9.19,2.18a86.64,86.64,0,0,1,12.91.73c5.6.12,18.42-.84,27.4-.43-3.4-.37-8.77-.86-8.38-1.62,4.4.43,9.24.42,10.07-.46-15.63-1.61-5,2-19.18,1-3.49-1-7.37-1.24-14.65-1.54,3.31-.58,1.85-.83,3.22-1.52,8.91,2.12,23.18.2,34.85,1.25,4.91.62,1.22,2,12.35,2.18l-9.57.65c10.52-.59,2.47.62,11.16.86l-3.45-.69a45.55,45.55,0,0,1,10.2.49l-4.49-1.07c2.86-.13,8.16-.26,8.23.36.74-.25,1-.46,1-.64a22.17,22.17,0,0,0,5.26.25c-2-.12-3.38,0-3.42-.37,12.78.26,3-1.14,10.91-1-1.26-.25,1-.55,3.84-.69-.2,1.68,15.5,1.9,19.65,2.82l-.05,0,10.7.67c-2.17-.14.17-.59,3.28-.77h-.51c3.4-.26-4-1.82,6.16-1.33l5.35.49c-.95-.06,0-.32.47-.44l5.52.45c8.43-1.56,15.92.88,25.85.11-2.86.14-7.23,0-5.36-.49a29.35,29.35,0,0,1,6.33.24l-.5-.19,18.91,1c-1.53-.56-12.12-.6-7.39-1.24,2.8-.76,8.23,0,11.63.1-.44.44-6.7.84-.37,1.07.77-.21,6.79-.67,3.95-1,6.48.45,15.9.73,21.69,1.51,1.84-.19-1-.38-2-.44l-.47.13c-3.9-.25-.6-1.13-8.27-.68-.64-1.45,11-.4,17.78-.6l-10.72-1c18.06-2,42.43.16,60.33.19-5.25.45-9.64,0-9,1.15,11.12.55,9.66.3,20.75.53l-1-.06c5.74-.58,13.57.53,17.33-.48-2.48-.62-8.14.58-8.28-.68l14,.1c-4.4-.75-14-.1-19.32-.27-3.85.07,7.73.17,5.9,1-13,0-16-.85-22.45-2-3.91-.88,5.7-.89,8.13-.9a178.28,178.28,0,0,0,33.4,1.32l7.11-1c6.41.87,3.68,2.58,15.26,2.36l-3.45-.68a52.1,52.1,0,0,1,5.42-.36c-5-.52-10.34-1.1-14.84-1.64,6.59-1.46,18.92.72,28.61,1-.51-.18-3.89-.24-4.9-.61,14.45-.35,29.57,1.38,40.73,1.61,4.72-.63-9.27-.42-7-1.37,5.87.37,12.49-.46,14.06.42-2.56-1.26,13.48-.1,2.26-1.27,21.15-.54,44.42.61,65.79,1.32-1-.38-1-.69-.14-.95-7.23,0-17.86-.34-21.87-1.21,4.75-.64,11.24.86,12.61.48-2.43-.31-7.25-.3-7.33-.93,6.19-.71,9.66.29,14,.41l-2.37.32c13.59.85,7.5,2.19,21.92,1.84,5.23-.76,0-.62-.13-1.57,3.39.37,14.35-.66,17.88.34l-8.73.08c6.11.27,11.89.27,16.12.59a4.53,4.53,0,0,0-2.08-.49c4.85.31,11.08.23,13.57.86a14.26,14.26,0,0,1,1.43-1c-.8.11-1.88.2-3.12.26s-2.64.09-4,.1a27.33,27.33,0,0,1-6-.4c.41-.44,2.81-.53,5.58-.51l4.24.07,2,0h1.84L995,42.48l-2.64-.09c-1.65-.07-3.1-.15-4.41-.24-2.62-.18-4.68-.38-6.66-.55a96.36,96.36,0,0,0-14.75-.25l2.41.31c-8.9.76-18.08-.5-25.89-.47,2.2-.2,2.64-.57,1.61-.74-17.27.79-34.25.19-53.93.67l-5.93-1-.36.75c-9.63.34-2.09-1.06-8.29-1,2.36,0,1.93.12,2.41.31-11.17-.86-6.21.71-12.48.47,3,.81,12.09.29,9.29,1.36-11.15-.85-28.49-.38-30.12-2.2-20.7.73-46.37-.41-63.77-.57-2.38.32,1.48.25.57.51-6.88-1.06-23.09.73-23.2-.21a19.79,19.79,0,0,0-5.63,1.21c-4.41-.46-9.7-.68-15.31-.81l4.1.26-.45.13L735.7,40l.22-.06c-14-.26-30.11,0-42.78-1.05,7.3.62-1.84,1.14,1.61,1.51-6.44-1.5-21.88-1.53-34.4-1.38,0,.32-.92.57.55.82l-7.26-.62,1,.38c-13,.28-27.16-1.39-35.74-.68,5.31.17,5.34.49,5.87,1-9.32,0-18.1,0-29-.51.58.09,1,.2,1,.31a89.26,89.26,0,0,1-9.2-.42l-.4.76c-5.56-.35-12.75,0-19.37-.57-2.59.83-16-.77-23.66-.42-2.92-.18,6.37.87-1.83.83-1.16-1.64-10.64,0-11.28-1.81l-7.17.65-1.58-.88c-6.09,1.65-9.27-.74-18.33-.22.48.19,1.45.25,1,.38-2.92-.18-9.68-.3-4.44-.75-4.83,0-21.26-.4-13.89.53-.53-.5,6.22-.07,9.14.11-.38.76-7.64.46-9.44,1.28-.23-.08-1.19-.21-1.88-.34l-1,.47c-9.07-.83-18.29-.23-24.89-1.31-.39.24-2,.42-5.09.36l-.14-.94-9.64,0,4.51,1.37c-10.58.28-18-1.28-26.72-1.52-2.24,1.58-17-.59-24.5.81l6.79.43c-14.51-.29-16.82.66-30.36.12,11.48-.53,11.55-.21,28.28-1.5-16.8.66-29-.89-44.39,0,1,.38,4.88.62,1.12,1-3-.82-14.49,0-12.21-.92-4.78.32-5.61,1.2-8.53,1.33l-16-1.16.49.19c-27.24,2.19-50.86-1.48-78.19-.54l.52.5-6.84-.74c5.36.5-2.32.64-2.74,1.08l-17.52-1.1C216.88,37.24,217.91,38.25,222.21,38.05Zm230.63.42,4.15.07a15.56,15.56,0,0,1,2.63,0l-2.63,0C454.85,38.66,453.29,39.06,452.84,38.47Zm382.24,1.82c2,.44-2.87.13-4.26.2l6.75.11C838.51,40.35,836.07,40.35,835.08,40.29Zm-382,4.28-2.31.64-3-.5Zm-58.84.06,5.86.36-.49.13-5.8-.36Zm-65.37-5.1c.37,0,.71.07,1.13.13a10.86,10.86,0,0,1-1.13-.13c-4.53-.45-6.33.68-10-.42C323.37,38.17,326.28,39.15,328.87,39.53Zm103.37,0a38.11,38.11,0,0,0,4.36.12c-1-.38-5-.94-2.07-1.07,2,.44,8.73.55,8.83,1.18C437.51,39.07,433.37,40.84,432.24,39.52Zm138.51.41-1.47.07,5.4.49Zm25.15.65c3,.81,10.69.67,16,.85,1.38-.7-4-1.51-10.29-1.43C594.29,39.38,598.85,41.07,595.9,40.58Zm-208.84.16,1.49.56-1.41.07,5.82.37c-7.64.77-13.1-.67-17-.91C379.37,40.88,388.69,42.25,387.06,40.74ZM649.52,41c5.36.5,15,1.11,14.14,1.68.34-1.08-7.42-1.56-9.84-1.56A34.77,34.77,0,0,1,649.52,41Zm-.29,2c-7.78-.49-8.31-1-14.25-2,7.7-.45,9.8.93,8.89,1.49,5.36.5,4.32-.19,7.19-.32Zm-8.08-3-3.17.15c-3.74.44-4.52,1.66-9.77.45l9.77-.45A23.55,23.55,0,0,1,641.15,40Zm65.38.06-3.19-.37c3.15,0,3.52.2,3.19.37l2.66.31C702.26,40.74,705.83,40.37,706.53,40Zm-49.86.29-9.19-.11C648,40.73,653.74,40.46,656.67,40.33Zm47.82.66c-3.88.07-14,.22-12.57.15C692.84,40.57,702,40.68,704.49,41Zm202.75,1.48-5.79,0,2.8-.76Zm-67.94.58,1.43-.38,3.37.06Zm-62.64.05c.3-.16.14-.37-.38-.54a9.77,9.77,0,0,1-2.18-.32,6.79,6.79,0,0,1,2.18.32,49.25,49.25,0,0,0,8-.16c-1-.37-4.87-.3-6.37-.55,5.73-.89,18.6,1.79,14.92-.78,2.43.3,10.73,1,7.86,1.43-6.56-.15-19,.13-24,.6a5.11,5.11,0,0,1-2,.27A14.47,14.47,0,0,1,776.66,43.1Zm-84.42.56a32.25,32.25,0,0,1-3.86-.23c-2-.19-3.59-.48-3-.83,5,.31,1.79.6,3,.83S691,43.64,692.24,43.66Zm-14.93.15,7.75.49-3.9-.56,11.68,1C686.14,45.31,678.35,44.5,677.31,43.81Zm-2.72.5-1.6-.62,2.44.63h-.84l.36.14L661.9,44.1ZM541.2,43.08c-4.89,2.12,11.55,1.5,14.1,2.53.54-.71,5.49-1.82-7.26-1.79,11-.72,6.9,1.37,13.46-.41-5.27.14-11.63-.41-12.57-.47l6.22-.08C551.63,41.55,545.57,43.51,541.2,43.08Zm-67,.32-8.19,0,7.75.18ZM272.12,44c.58.5-10,1.41-12.47.47C265,44.32,270.76,44.37,272.12,44Zm-86.82-.14,9.19.42c-1.77,1.14-8.21-.05-12.52.15C180.47,43.86,183.87,44.23,185.3,43.85Zm-59.83,0-2.93-.18,3.08,1.13Zm4,1.5c-1.85.51,4.43.75,5.92.69Zm-53.9,1,3.83-.07-3.46-1Zm6.11-1.17c.9.72.52,1.69,9.35,1.21.36-.76-2-.75,1.24-1.64a48.74,48.74,0,0,0-6.74.2c2,.12,4.31-.2,4.85.3a43.86,43.86,0,0,1-8.7-.07,3.45,3.45,0,0,0-2-.6C79.77,44.79,80.52,45,81.71,45.16Zm32-.79a18.13,18.13,0,0,0,2.64-.32l.53.19a7.69,7.69,0,0,1-3.17.13c-1.27.1-2.76.18-4.29.26-1,.64,5.06,1.08,6.66,1.43-2.88-.18-5.37-.8-9.18-.42.5.19,0,.32,2.43.31l-5.27.14c-6-.89-.27-1.16,5.36-1.46a4.17,4.17,0,0,1,1.67-.44A10.48,10.48,0,0,1,113.69,44.37ZM71.37,42.94l2.89.19c1.48.25.54.5,1,.69C71.93,43.76,67.52,43.33,71.37,42.94Zm173.15-.22c-1.92.2,2.51.94,6.81.75l-2.29.94c-.11-.62-8.75-.54-9.72-.61C237.79,42.93,241.16,43.3,244.52,42.72Zm201.14,0c1.57,1.2,12.59.48,15,.79C455,43.75,441.93,44,445.66,42.7Zm19.1-.48c3,0,3.87-.1,3.56.5,1.46.25,3.85-.07,5.32.18-5.86.52-5.5-.43-8.88-.68l-2.8,0A23.71,23.71,0,0,1,464.76,42.22Zm-117.57-.08-4-.87-6.25.07Zm-67.25-1.56c.52.5-6.67.51-8.17.26.46.67,5.28.58,9.11.65a23.6,23.6,0,0,0,2.53.09c-.75,0-1.59-.07-2.53-.09-1.43-.15-.43-.49-.43-.72l1.9-.2-5.3-.18Zm-118.25-.71A29.25,29.25,0,0,1,154,40,39.93,39.93,0,0,1,161.69,39.87Zm153.9.13c-7.24.33,3.47,1-1.27,1.33l3.78-.07c-6.14.7-4.38-.75-8.71-.55l2.89-.13c2.29-.64-4.43-.44-5-.94C310.69,39.38,318.46,39.87,315.59,40Zm-160.7-.56c-7.16.65-5.89-.68-10.23-.8C150.36,38.06,149.53,39.26,154.89,39.44ZM270,38.08l.45-.13-5.81-.36-.46.12Z"/><path class="37e74925-30bf-4219-9d83-5bd7d9dd8674" d="M146,46.07a38.49,38.49,0,0,1-3.89,0C143.34,46.05,144.64,46,146,46.07Z"/><path class="37e74925-30bf-4219-9d83-5bd7d9dd8674" d="M482.31,46.72a3.52,3.52,0,0,1,1.62-.32A4.22,4.22,0,0,1,482.31,46.72Z"/><path class="37e74925-30bf-4219-9d83-5bd7d9dd8674" d="M496.31,47.13h.53l.44.06Z"/><path class="37e74925-30bf-4219-9d83-5bd7d9dd8674" d="M984.24,45c3,.82-2.9.14-5.31.14C981.34,45.1,982.27,44.53,984.24,45Z"/><path class="37e74925-30bf-4219-9d83-5bd7d9dd8674" d="M965.26,43.62a46.37,46.37,0,0,0,6,.47A34.32,34.32,0,0,1,965.26,43.62Z"/><path class="37e74925-30bf-4219-9d83-5bd7d9dd8674" d="M980.74,44c-3.69.17-6.91.2-9.52.13C973.65,44.05,975.71,43.74,980.74,44Z"/><path class="37e74925-30bf-4219-9d83-5bd7d9dd8674" d="M914.15,43.84a56.78,56.78,0,0,0,8.72.24c-12.5.46,2.51.94,3.55,1.31C918.64,45.22,918.6,44.59,914.15,43.84Z"/><path class="37e74925-30bf-4219-9d83-5bd7d9dd8674" d="M897.6,43.59c1.28,0,2.51,0,3.46-.1A23.93,23.93,0,0,1,897.6,43.59Z"/><path class="37e74925-30bf-4219-9d83-5bd7d9dd8674" d="M893,44.08A31.29,31.29,0,0,1,885.12,43c5.24-.41,8.58.49,12.48.63C894.53,43.6,891.53,43.54,893,44.08Z"/><path class="37e74925-30bf-4219-9d83-5bd7d9dd8674" d="M759.65,46.8c1,.06,3.39.05,3.45.37h-7.24C753,47,758.2,46.86,759.65,46.8Z"/><path class="37e74925-30bf-4219-9d83-5bd7d9dd8674" d="M732.94,45.28c-5.78-.06-2.77.76-5.7.57l.33-1.07Z"/><path class="37e74925-30bf-4219-9d83-5bd7d9dd8674" d="M736.16,39.86l1.71.1-2,0Z"/><path class="37e74925-30bf-4219-9d83-5bd7d9dd8674" d="M705.09,46.34l4,1.19C704.23,47.22,704.16,46.28,705.09,46.34Z"/><polygon class="37e74925-30bf-4219-9d83-5bd7d9dd8674" points="683.02 47.14 686.41 47.51 675.79 47.15 683.02 47.14"/><polygon class="37e74925-30bf-4219-9d83-5bd7d9dd8674" points="656.42 46.56 655.48 46.81 648.19 46.51 656.42 46.56"/><path class="37e74925-30bf-4219-9d83-5bd7d9dd8674" d="M366.9,45.56c-1.1-1,10.5-.58,13.88-.84C378.47,46,371.53,44.3,366.9,45.56Z"/><path class="37e74925-30bf-4219-9d83-5bd7d9dd8674" d="M156.09,45.61l11.09.23C158.59,46.23,164.79,45.84,156.09,45.61Z"/><path class="37e74925-30bf-4219-9d83-5bd7d9dd8674" d="M529.32,87.06a.61.61,0,0,0-.13.15C529.14,87.07,529.15,87,529.32,87.06Z"/><path class="37e74925-30bf-4219-9d83-5bd7d9dd8674" d="M528.67,89a2.24,2.24,0,0,1,.52-1.79C529.34,87.65,530.2,88.85,528.67,89Z"/><path class="37e74925-30bf-4219-9d83-5bd7d9dd8674" d="M531.8,87l-.46.62C530.93,87.23,531.65,87.3,531.8,87Z"/><polygon class="37e74925-30bf-4219-9d83-5bd7d9dd8674" points="530.37 87.2 529.81 87.17 530.36 86.83 530.37 87.2"/><path class="37e74925-30bf-4219-9d83-5bd7d9dd8674" d="M524.79,55.33a2.18,2.18,0,0,1-.84.08Z"/><path class="37e74925-30bf-4219-9d83-5bd7d9dd8674" d="M527.34,53.89a1.17,1.17,0,0,0,.15-.3C527.53,53.68,527.47,53.75,527.34,53.89Z"/><path class="37e74925-30bf-4219-9d83-5bd7d9dd8674" d="M525,56.64l-.08-.25C525,56.47,525.07,56.56,525,56.64Z"/><path class="37e74925-30bf-4219-9d83-5bd7d9dd8674" d="M527.17,72.67c-.4.24-.77.46-1,.63C525.71,72.84,526.63,72.8,527.17,72.67Z"/><path class="37e74925-30bf-4219-9d83-5bd7d9dd8674" d="M535.51,47.25l-.45-.06C535.26,47.12,535.46,47.09,535.51,47.25Z"/><path class="37e74925-30bf-4219-9d83-5bd7d9dd8674" d="M534.84,53.54a2.48,2.48,0,0,1-.59,0l.11-.08Z"/><path class="37e74925-30bf-4219-9d83-5bd7d9dd8674" d="M525.94,57.66l0,0-.28.2C525.63,57.77,525.7,57.7,525.94,57.66Z"/><path class="37e74925-30bf-4219-9d83-5bd7d9dd8674" d="M536.13,45.23a6.22,6.22,0,0,1,1-.26A1.41,1.41,0,0,1,536.13,45.23Z"/><path class="37e74925-30bf-4219-9d83-5bd7d9dd8674" d="M527.49,53.56s0,0,0,0,0,0,0,0S527.49,53.57,527.49,53.56Z"/><path class="37e74925-30bf-4219-9d83-5bd7d9dd8674" d="M534.35,55.63c.08-.11.13-.21.23-.33C534.69,55.44,534.56,55.56,534.35,55.63Z"/><path class="37e74925-30bf-4219-9d83-5bd7d9dd8674" d="M527.17,72.67l.34-.21C527.5,72.56,527.37,72.62,527.17,72.67Z"/><path class="37e74925-30bf-4219-9d83-5bd7d9dd8674" d="M528.31,85.38c0-.2.31-.25.64-.28A1.75,1.75,0,0,1,528.31,85.38Z"/><path class="37e74925-30bf-4219-9d83-5bd7d9dd8674" d="M526.34,12.49v-.08S526.36,12.47,526.34,12.49Z"/><path class="37e74925-30bf-4219-9d83-5bd7d9dd8674" d="M525.14,20.21a2.22,2.22,0,0,1-.36.11C524.66,20.25,524.87,20.21,525.14,20.21Z"/><path class="37e74925-30bf-4219-9d83-5bd7d9dd8674" d="M536.05,27.33c-.66-.51.68-1,.75-1.47l-.56.15.47-.44h-.8c.37-.74-.46-1.64.82-1.91l-1.28.08,1-.77-.86.44c-.27-.87.72-2.19.71-2.38l-.47.08c-.25-.14.07-.26.22-.41l-.71.12c.19-1.31-1.42-1.67-.67-3.14-.17-.4-.23.22-.63.23-.56-.22,0-.73.29-.85-1.11.12-.77.74-1.67.27.55-.33-1,.23-.81-.36l1.43-.23c-.25-.33-1.12-.06-1-.58.63-.59,1.63.72,1.83-.23-.09-.47-3.31-1-2.54-1.92-.74-.8-2.23.42-1.86-.68l-.94.7c-.4-.18-1.12-.07-.82-.54.56-.15,1.27-.45,1.34-.7-1.08,1-1.63-.91-3,0l.06-.36a.42.42,0,0,1-.3,0l-.1-.48c-.31.29-.45,1-1.5.67l-.26-.69a7.22,7.22,0,0,1-1.76,0l-1.54,2c.48-.08.79-.37,1.27-.26.42.54-.86.44-.2,1l.63-.22c-.24,0-.32.11-.4,0-.41-.18.07-.26.47-.26.81.18.26.69-.29.84.1.66,1.44.14,1.69.28-1.35.34,0,1.1-.59,1.51l.87-.26c1.06.5.19.94-.12,1.24l.72-.12c-.14.7,2.27,1-.27,1.58l.48-.08c.22.29.75.72,0,1,.3,0,.67.06.76.18-1,.15-.24.45-.07.87.26-.28,1.53-.19,1.84-.49,1.3.65-1.42.6-1.4,1.14.65.33.71-.29,1.18-.37-.69.85,2.94,1.73.4,2.27l-.81-.37c-.55.34-.55.52-.31.48-.08-.11.16-.14.4-.18,1.31,1-1.87,1.58-1.36,2.6a9.12,9.12,0,0,1,1-.23c.49.47-2.47.46-1.48,1.22l.55-.15c.33.26-.46.44-.62.41,2.16,0-.11,1.61,2.71,2.14-1.19.37-2.11,1.43-1.46,1.76,1.29.47,1.42-.41,2.63-.24,0,.37-1.18.56-.76,1.1-1.2,0-2.44-1.07-3.13-.05l.65.14c-.09-.1-.33-.25-.17-.4.71-.29.8.18,1.12.25l-.36,1.1c-1.28.08-1-.58-1.3-.65.27.88,2.14,1.92,1.29,2.73l.48-.07c-1.09,1,2.34.6.28,1.42.34.44,1.36-.15,1.46.5,0,.19-.47.08-.64,0-.45.81,1.22.36,0,1.1l1.35-.16c-.93.89-3.29,1.82-2.71,2.58,1-.05.94-.52,1.74-.71-1.89,1-.24,2.49-1.25,3.45-.89-.29-2.06.45-2.8-.16,1.35-.16.46-.45.61-.78-2.94.53,1.43,2.22-1.12,2.39l1.05.14c-.16.14-1,.52-1.28.26l.68,1.06c.79-.37,2.6-1.16,1.47-1.4,1.11-.3.74.43,2,.16-1.74.71.73.44.36,1.17-1.51-.33-2.05.73-2.78.7.28.24-.42.77-.93,1-.14.42,1.07,1.39.55,2.07a3.69,3.69,0,0,1,2.06-.63c-.55.33-.53.7.59.76,2-1.18-2.57-.38-1.25-1.45,1.27-.27,1.58-.56,2-1.11a7.55,7.55,0,0,0,1.93.24c-2.7.68-.26,1.76-1.59,2.64-.79.37-2.48.09-2.77.94l-.83-.73c.75.8-.79.19-1.09.85l.88-.27c.17.41,0,.56-.62.78l1.35-.34c.17.21.34.62-.46.62a4.49,4.49,0,0,0,.82.08c-.22,0-.37.14-.32.4.15-.15.07-.26.47-.26-.32,1,1.46.22,1.33.82a.89.89,0,0,1,.86.29c-2.12,0-2.4,1.18-3.58,1.49h0l-.85.81c.17-.16.75,0,1,.25v0c.33.26,2.31-.31,1.69.47l-.62.4c.07-.07.4,0,.56,0l-.58.42c2,.63-1.12,1.2-.14,2-.17-.21,0-.54.62-.4.25.14,0,.36-.3.48l.24,0L525.1,61.1c.71-.11.77-.92,1.58-.56,1,.22-.06.63-.13.88-.56,0-1.06-.5-1.36,0,.27.05.85.51,1.26.3-.58.49-.92,1.2-1.92,1.64.25.14.48-.08.56-.15l-.16,0c.31-.3,1.43,0,.85-.63,1.84,0,.51.84.77,1.35l1.25-.81c2.52,1.37-.21,3.21-.24,4.57-.58-.4,0-.73-1.47-.68-.69.84-.37.73-.66,1.57l.07-.07c.74.43-.68,1,.61,1.31.79-.19-.75-.62.86-.63l-.13,1.06c.95-.33.13-1.06.35-1.46-.09-.29-.22.58-1.27.45.05-1,1.09-1.22,2.59-1.71,1.11-.29,1.13.44,1.14.62-1.66.63-2.43,1.55-1.67,2.53l1.21.54c-1.1.48-3.27.28-3,1.16l.87-.27c.35.2.46.32.45.41.66-.37,1.4-.78,2.09-1.12,1.85.5-.92,1.43-1.29,2.17.24,0,.31-.3.79-.37.44,1.09-1.77,2.24-2.06,3.08.81.36.54-.7,1.74-.53-.46.45.59,1-.52,1.07,1.59-.19.12,1,1.61.17.69,1.6-.77,3.37-1.68,5a3.49,3.49,0,0,1,1.2,0,1.86,1.86,0,0,1,1.55-1.65c.81.36-1.09.85-.61,1,.39-.18.38-.55,1.18-.55.89.47-.38.73-.53,1.06l-.4-.18c-1.09,1-2.78.57-2.34,1.66,1,.4.79,0,2,0-.47.26.84,1.09-.43,1.36l-.1-.66c-.34.46-.34.9-.75,1.22a1.38,1.38,0,0,0,.62-.16c-.38.37-.29.84-1.08,1l1.28.1c-.57-.22-.67-.88.05-1,1.12.07.42.73.51,1,.36-1.28,2.36-1.3,1.52-2.38l-.39.18c-1-.67.63-1.37.59-2a1.28,1.28,0,0,0,.94.12c-1-1.31-.24-2.59-.85-4.08l1.27-.45-1,0c-.42-.73,1.36-.16,1.26-.63,0,.18-.15.15-.39.18,1.09-.84-.9-.47-.59-.94-1,.22-.37.91-1.74.7,1.09-.84.49-2.16,2.81-2.28-.94-1.57.51-3.51.71-4.83-.4-.18-.31.11-.64,0,1.35-.52-.93-1.75.27-1.76a5,5,0,0,0-1.54-.42,2.21,2.21,0,0,0,1-1.16l-.33.31-.16,0,.47-.44.07,0C534,65.19,533.71,64,535,63c-.78.55-1.45-.14-1.92.12,1.91-.49,1.95-1.66,1.75-2.61a3.11,3.11,0,0,0-1,0l.78-.55-.48.07c-.35-1,1.77-2.06.87-2.71-.23.4-.63.4-1.27.44a3.73,3.73,0,0,1,.65-2.19,1.24,1.24,0,0,1-.4.07c-.16-.21.31-.47.54-.69l-1,0c.44-.43,0-1,.72-1.47-1.06-.2,1-1.22.53-1.79.23-.23-1.1.48-1-.14,2.07-.09,0-.81,2.29-.86l-.82-.54,1.12-.12c-2.1-.46.93-.7.27-1.39-.24,0-.32.11-.48.08.23-.23.38-.74,1-.34,0-.37.51-1.61-.68-1,.65,0,.1.47-.13.69-1,0-.58-.58-1.63-.72a3,3,0,0,0,.43-.14l-.59-.08c1.06-.68.29-1.38,1.66-1.88-.3,0-.53-.15-.46-.39h1.2l0-.73-1.75.34c-.35-.8,1.63-1.36,1.93-2-2-.17.76-1.29-1-1.86l-.54.52c.36-1.1-.85-1.28-.16-2.31a5.66,5.66,0,0,0,1.91,2.15c-.84-1.27,1.13-2.2,0-3.37-.47.08-.78.37-1.27.09,1-.23,0-1.1,1.17-.93-.41-.36-1.54-.42-1.7-.64l1.48-1.22-.24,0c-2.79-2.06,1.87-3.85.68-5.92l-.64,0,.94-.52c-.62.4-.8-.18-1.36-.21L537.63,27C537.07,26.92,535.8,27,536.05,27.33Zm-.54,17.47-.09.32c.06.06.08.12,0,.19l0-.19C535.26,45,534.76,44.84,535.51,44.8Zm-2.31,29c-.56.15-.17-.22-.25-.32l-.15.51C533.13,74,533.12,73.84,533.2,73.76Zm-5.45-28.94-.8-.18.63-.22Zm-.07-4.46-.46.45-.16,0,.46-.44Zm6.48-5a.79.79,0,0,1-.16.08l.16-.08c.58-.34-.86-.48.53-.76C535.89,35,534.65,35.21,534.16,35.41Zm0,7.83c-.16.15-.23.22-.15.33.48-.08,1.18-.37,1.35-.16-.55.16-.69.67-1.49.67C534.75,43.64,532.5,43.33,534.18,43.24Zm-.53,10.5-.09-.12-.62.41Zm-.82,1.9c-1,.23-.85.81-1.08,1.21.89.11,1.91-.3,1.82-.78C534.35,55.52,532.2,55.86,532.83,55.64Zm-.21-15.82-.71.11-.09-.11-.46.44c-1-.57.85-1,1.16-1.28C532.44,39.23,530.71,39.94,532.62,39.82Zm-.29,19.88c-.63.41-1.4,1.14-2.13,1.07,1.37,0,2-.56,2-.74S532.17,59.85,532.33,59.7Zm-2.56,0c.62-.59,1.25-.63,2.52-1.08.58.58-1.17.74-1.89.67-.63.41.25.33.41.55Zm3.82-.61-.19-.24c-.56-.28-2.11-.34-.57-.74l.57.74C533.53,58.89,533.61,59,533.59,59.07ZM533.52,64l.46-.24c0,.24-.25.27-.46.24l-.4.2C532.63,63.7,533.1,64,533.52,64Zm-.37-3.78.13-.69C532.64,59.59,533,60,533.15,60.24Zm-.84,3.63c-.09-.3-.28-1.06-.19-.95C532.84,63,532.7,63.68,532.31,63.87Zm-1.89,15.36.07-.44,1,.21Zm-.73-5.15.48.11-.07.26Zm-.07-4.74a2.78,2.78,0,0,0,.7,0,.75.75,0,0,1,.4-.17c0,.07-.17.13-.4.17s-.1.47.19.6c.48-.08.39-.37.7-.48,1.14.43-2.27,1.41,1,1.13-.39.18-1.25.81-1.82.59a1.79,1.79,0,0,0-.77-1.81c-.17,0-.31-.07-.33-.15A.82.82,0,0,1,529.62,69.34Zm-.7-6.4a.47.47,0,0,1,.28-.29,1.68,1.68,0,0,1,1.06-.23c-.39.38-.77.14-1.06.23A.64.64,0,0,0,528.92,62.94Zm-.2-1.13-.62.59.71-.3-1.33.89C526.82,62.48,527.84,61.89,528.72,61.81Zm-.63-.21.78-.12-.8.19,0-.07-.18,0,.45-1Zm1.56-10.1c-2.69-.37-1.91.87-3.21,1.06.9,0,2.31.42,2.27-.55.91.84-1.74.53.52,1-.18-.4.53-.88.6-1l.1.47C531.6,52.29,529.11,51.83,529.65,51.5Zm-.41-5.08.07-.62-.23.58Zm-.75-15.31c-.63,0-1.78-.76-.59-.95C528.08,30.57,528,31,528.49,31.11Zm.18-6.58-.53.7c-1.45-.14.06-.62-.19-.95C528.66,24.16,528.19,24.42,528.67,24.53Zm0-4.53.23-.22-1.43.23Zm-1.91.3c-.64-.14-.95.34-.86.45Zm-1.25-4.08.09.29,1.27-.26Zm1.49.46c-.91.07-2.15,0-1.53.71a7.15,7.15,0,0,1,2.08.09c.23-.22-.18-.4-.26-.51-.15.15.25.33-.39.37-.36-.25-.24-.5.1-.66a2,2,0,0,0,.76-.15A2,2,0,0,0,527,16.68Zm1,2.43a1.16,1.16,0,0,0,.4.2l-.24,0c-.42-.1-.32-.17-.16-.24a2.13,2.13,0,0,1-.34-.33,4.26,4.26,0,0,0-1.82.5c.23-.21,1-.4.54-.69-.24,0-.41,0-.4.18l-.17-.4c1.13-.45,1.48,0,1.85.41a1.92,1.92,0,0,1,.57.13C528.36,19,528.16,19,528,19.11Zm1.8-3.21-.23.22a4.1,4.1,0,0,1-.88.08A.8.8,0,0,1,529.82,15.9ZM530.1,29c-.24-.15-1.19.19-.94.51l-1.2-.17c.79,0,.69-.66.77-.74C529.85,28.51,529.37,28.76,530.1,29Zm0,15.24c-1.51.12-.6,1-1,1.14C528.8,45,528.44,44,530.13,44.26Zm.62,1.44c0,.23.12.3-.64.27-.32.12.09.3-.23.41-.67-.45.55-.42.87-.68a.57.57,0,0,1,.06-.21A.15.15,0,0,1,530.75,45.7Zm.09-8.9,1.11-.31-.09-.47Zm2-5.1c-.64,0-.65-.5-.34-.62-.84,0-.73.4-.82.69a.2.2,0,0,0-.11.19.37.37,0,0,0,.11-.19,2.51,2.51,0,0,1,.92,0l.25.14.23-.4Zm.9-9c-.65-.32-.41-.36-.18-.58C533.88,22.23,534,22.52,533.73,22.74Zm-.17,11.66c-.42-.55-1.27.27-1.68-.09l.09.28c-.9-.46.95-.33.7-.66l.16.22c.81.18.55-.33,1.19-.37C534.35,34,533.73,34.62,533.56,34.4Zm.72-12.17c-.82-.55.86-.45,1-.78C536,21.88,534.5,21.82,534.28,22.23ZM536,31l.16,0,.46-.44-.16,0Z"/><path class="37e74925-30bf-4219-9d83-5bd7d9dd8674" d="M525.85,21.55c-.1-.13-.08-.22,0-.29A.36.36,0,0,1,525.85,21.55Z"/><path class="37e74925-30bf-4219-9d83-5bd7d9dd8674" d="M525,47a.64.64,0,0,1,.4.13A.82.82,0,0,1,525,47Z"/><path class="37e74925-30bf-4219-9d83-5bd7d9dd8674" d="M524.5,48.1v0s0,0-.08,0Z"/><path class="37e74925-30bf-4219-9d83-5bd7d9dd8674" d="M527.26,85.06c-1,.23-.17-.22-.18-.4C527.09,84.84,527.81,84.91,527.26,85.06Z"/><path class="37e74925-30bf-4219-9d83-5bd7d9dd8674" d="M529,83.63a.94.94,0,0,0-.6.45C528.34,84,528.45,83.83,529,83.63Z"/><path class="37e74925-30bf-4219-9d83-5bd7d9dd8674" d="M528.53,84.8a.66.66,0,0,1-.16-.72C528.42,84.26,528.81,84.42,528.53,84.8Z"/><path class="37e74925-30bf-4219-9d83-5bd7d9dd8674" d="M528.68,79.75c-.63.23-.3.66-.3.66-.59-.94-1.19.19-1.67.27C526.93,80.09,527.73,80.09,528.68,79.75Z"/><path class="37e74925-30bf-4219-9d83-5bd7d9dd8674" d="M529,78.5a.32.32,0,0,0,.13.26C529,78.67,529,78.58,529,78.5Z"/><path class="37e74925-30bf-4219-9d83-5bd7d9dd8674" d="M528.39,78.15c.14-.33.86-.45,1.41-.6.52.4-.62.65-.8,1C529,78.27,529.07,78,528.39,78.15Z"/><path class="37e74925-30bf-4219-9d83-5bd7d9dd8674" d="M524.93,68.05c-.08.07-.07.25-.47.26l0-.55C524.67,67.54,524.84,67.94,524.93,68.05Z"/><path class="37e74925-30bf-4219-9d83-5bd7d9dd8674" d="M526.86,66c.07-.43-1-.21-.73-.43l1.36,0Z"/><path class="37e74925-30bf-4219-9d83-5bd7d9dd8674" d="M533.75,66.27l-.14.13a.88.88,0,0,0,0-.15Z"/><path class="37e74925-30bf-4219-9d83-5bd7d9dd8674" d="M525.51,63.91l-1.51.31A2.26,2.26,0,0,1,525.51,63.91Z"/><polygon class="37e74925-30bf-4219-9d83-5bd7d9dd8674" points="524.49 62.24 524.02 62.5 524.48 61.69 524.49 62.24"/><polygon class="37e74925-30bf-4219-9d83-5bd7d9dd8674" points="525.23 60.23 524.9 60.16 525.29 59.6 525.23 60.23"/><path class="37e74925-30bf-4219-9d83-5bd7d9dd8674" d="M526.49,38.29c1.28-.08.75.8,1.08,1.05C526,39.17,528.11,38.64,526.49,38.29Z"/><path class="37e74925-30bf-4219-9d83-5bd7d9dd8674" d="M526.44,22.32l-.29.84C525.65,22.51,526.14,23,526.44,22.32Z"/></g></svg>